<?xml version="1.0" encoding="utf-8"?><svg version="1.1" id="Layer_1" xmlns="http://www.w3.org/2000/svg" xmlns:xlink="http://www.w3.org/1999/xlink" x="0px" y="0px" viewBox="0 0 122.88 119.81" style="enable-background:new 0 0 264.6 264.6" xml:space="preserve" width="22px" height="22px"><style type="text/css">
.st0{fill:#FFFFFF;}
<![CDATA[
	.st0{fill-rule:evenodd;clip-rule:evenodd;}
]]></style><g><path class="st0" d="M24.35,106.23v-39.1h17.59c7.46,1.33,14.91,5.38,22.37,10.07h13.66c6.18,0.37,9.43,6.64,3.41,10.76 c-4.79,3.52-11.11,3.31-17.59,2.73c-4.47-0.22-4.66,5.78,0,5.8c1.62,0.13,3.38-0.25,4.91-0.25c8.09-0.01,14.74-1.56,18.82-7.94 l2.04-4.78l20.32-10.07c10.17-3.35,17.39,7.29,9.9,14.69c-14.72,10.71-29.81,19.52-45.25,26.64c-11.21,6.82-22.43,6.59-33.64,0 L24.35,106.23L24.35,106.23L24.35,106.23z M76.27,11.21C81.5,5.77,85.16,1.05,93.21,0.13c15.12-1.74,29.02,13.74,21.39,28.98 c-1.43,2.85-3.82,6.05-6.68,9.34v-0.4H89.34h-0.99l-0.69,0.72L84.54,42l-6.45-12.38l-2.14-4.11l-2.05,4.16l-5.84,11.85l-5.79-8.4 l-2.04-2.95l-1.89,3.05l-2.71,4.39H43.72c-4.05-5.57-6.9-11.58-7.13-18.07C36.17,7.66,45.54,0.06,56.32,0.2 C65.95,0.32,70,5.11,76.27,11.21L76.27,11.21L76.27,11.21z M103.99,42.76c-0.29,0.31-0.59,0.61-0.88,0.92 c-8.62,8.93-17.97,17.61-26.83,26.4C67,61.15,55.75,51.73,47.51,42.31h9.43h1.3l0.69-1.12l1.51-2.45l6.02,8.74l2.26,3.29l1.76-3.58 l5.55-11.28l5.8,11.15l1.5,2.88l2.26-2.34l4.7-4.84H103.99L103.99,42.76L103.99,42.76z M0,63.37h19.05v46.79H0V63.37L0,63.37z"/></g></svg>