<?xml version="1.0" standalone="no"?>
<!DOCTYPE svg PUBLIC "-//W3C//DTD SVG 20010904//EN"
 "http://www.w3.org/TR/2001/REC-SVG-20010904/DTD/svg10.dtd">
<svg version="1.0" xmlns="http://www.w3.org/2000/svg"
 width="512.000000pt" height="512.000000pt" viewBox="0 0 512.000000 512.000000"
 preserveAspectRatio="xMidYMid meet">

<g transform="translate(0.000000,512.000000) scale(0.100000,-0.100000)"
fill="#000000" stroke="none">
<path d="M1345 4635 c-675 -106 -1166 -706 -1132 -1384 9 -171 50 -342 121
-503 l16 -38 -115 0 c-96 0 -122 -3 -155 -20 -45 -23 -80 -80 -80 -130 0 -50
35 -107 80 -130 36 -18 58 -20 257 -20 l218 0 965 -964 c858 -857 969 -965
1003 -971 95 -18 28 -78 1077 971 l965 964 218 0 c199 0 221 2 257 20 45 23
80 80 80 130 0 50 -35 107 -80 130 -33 17 -59 20 -155 20 l-115 0 16 37 c240
545 120 1149 -308 1548 -199 184 -438 299 -713 341 -122 19 -343 14 -460 -11
-249 -52 -469 -167 -655 -342 l-90 -85 -92 87 c-204 192 -443 309 -718 350
-114 18 -295 18 -405 0z m402 -304 c158 -31 294 -90 421 -183 31 -23 113 -97
182 -164 69 -67 135 -126 147 -133 28 -14 98 -14 126 0 12 7 81 69 152 138
198 192 327 272 532 328 88 25 115 27 258 28 133 0 175 -4 248 -23 259 -65
477 -218 622 -436 228 -344 232 -785 9 -1138 l-24 -38 -394 0 -393 0 -178 280
c-153 242 -183 284 -216 300 -50 26 -95 25 -143 -3 -35 -20 -65 -68 -288 -457
-137 -239 -252 -438 -256 -442 -4 -4 -153 282 -332 635 -312 616 -327 643
-365 664 -72 41 -160 20 -198 -45 -10 -17 -103 -233 -206 -479 l-188 -448
-281 -3 -280 -2 -20 27 c-11 16 -38 64 -60 108 -247 495 -68 1088 413 1370
199 117 476 162 712 116z m612 -2246 c57 -112 71 -133 106 -152 51 -29 99 -29
149 0 35 20 66 69 296 472 142 247 262 450 266 452 5 1 67 -90 138 -203 108
-173 134 -208 167 -224 36 -19 60 -20 346 -20 l308 0 -788 -787 -787 -788
-787 788 -788 787 203 0 c184 0 207 2 242 20 49 25 47 20 208 406 72 170 136
322 143 337 12 26 23 7 262 -465 137 -271 279 -551 316 -623z"/>
</g>
</svg>
